<svg xmlns:inkscape="http://www.inkscape.org/namespaces/inkscape" xmlns:sodipodi="http://sodipodi.sourceforge.net/DTD/sodipodi-0.dtd" xmlns="http://www.w3.org/2000/svg" xmlns:svg="http://www.w3.org/2000/svg" width="306" zoomAndPan="magnify" viewBox="0 0 229.5 229.49999" height="306" preserveAspectRatio="xMidYMid" version="1.0" id="svg100" sodipodi:docname="8.svg" inkscape:version="1.3.1 (9b9bdc1480, 2023-11-25, custom)">
  <sodipodi:namedview id="namedview100" pagecolor="#ffffff" bordercolor="#000000" borderopacity="0.25" inkscape:showpageshadow="2" inkscape:pageopacity="0.0" inkscape:pagecheckerboard="0" inkscape:deskcolor="#d1d1d1" inkscape:zoom="1.596" inkscape:cx="152.56892" inkscape:cy="152.88221" inkscape:window-width="1888" inkscape:window-height="1023" inkscape:window-x="12" inkscape:window-y="12" inkscape:window-maximized="1" inkscape:current-layer="svg100"/>
  <defs id="defs3">
    <g id="g1"/>
    <clipPath id="d1b468785b">
      <path d="M 72.917969,72.917969 H 302.41797 V 302.41797 H 72.917969 Z m 0,0" clip-rule="nonzero" id="path1"/>
    </clipPath>
    <clipPath id="259b934974">
      <path d="M 84.851562,85.285156 H 289.60156 V 290.03516 H 84.851562 Z m 0,0" clip-rule="nonzero" id="path2"/>
    </clipPath>
    <clipPath id="ff5cd3034c">
      <path d="m 147.63281,133 h 79.5 v 98.57422 h -79.5 z m 0,0" clip-rule="nonzero" id="path3"/>
    </clipPath>
  </defs>
  <g clip-path="url(#d1b468785b)" id="g4" transform="translate(-72.917969,-72.917969)">
    <path fill="#ffffff" d="m 187.66797,302.41797 c -63.29688,0 -114.750001,-51.45703 -114.750001,-114.75 0,-63.29688 51.500001,-114.750001 114.750001,-114.750001 30.66015,0 59.48437,11.933593 81.14844,33.597661 21.66796,21.66406 33.60156,50.48828 33.60156,81.15234 0,63.29297 -51.45703,114.75 -114.75,114.75 z m 0,-222.019532 C 128.5,80.398438 80.398438,128.5 80.398438,187.66797 c 0,59.16406 48.101562,107.26562 107.269532,107.26562 59.16406,0 107.26562,-48.10156 107.26562,-107.26562 0,-28.64453 -11.15234,-55.58594 -31.39453,-75.875 C 243.29687,91.507812 216.30859,80.398438 187.66797,80.398438 Z m 0,0" fill-opacity="1" fill-rule="nonzero" id="path4"/>
  </g>
  <g clip-path="url(#259b934974)" id="g5" transform="translate(-72.917969,-72.917969)">
    <path fill="#ffffff" d="m 187.22656,290.03516 c -56.43359,0 -102.374998,-45.94141 -102.374998,-102.375 0,-56.4336 45.941408,-102.375004 102.374998,-102.375004 56.42969,0 102.375,45.941404 102.375,102.375004 0,56.43359 -45.94531,102.375 -102.375,102.375 z m 0,-203.238285 c -55.625,0 -100.863279,45.238285 -100.863279,100.863285 0,55.625 45.238279,100.86328 100.863279,100.86328 55.625,0 100.85938,-45.23828 100.85938,-100.86328 0,-55.625 -45.23438,-100.863285 -100.85938,-100.863285 z m 0,0" fill-opacity="1" fill-rule="nonzero" id="path5"/>
  </g>
  <g clip-path="url(#ff5cd3034c)" id="g6" transform="translate(-72.917969,-72.917969)">
    <path fill="#fa6525" d="m 222.05078,158.62109 -24.34375,-21.14062 c -5.62891,-4.90625 -14.46484,-4.90625 -20.42187,0 l -24.34766,21.14062 c -3.14063,2.81641 -5.30078,7.39453 -5.30078,11.64844 v 61.65625 h 12.69922 c 2.8125,0 5.625,-0.32812 8.4414,-0.32812 l 0.71875,-23.23438 1.04688,22.90625 c 7.07031,-0.71875 14.46484,-2.09375 22.1875,-2.48828 l 0.72265,-27.16016 1.4375,27.16016 c 6.34766,0 13.02344,0.72266 19.76563,3.14453 h 12.69922 v -61.71875 c 0,-4.19141 -1.76953,-8.76953 -5.30469,-11.58594 z m 0.32813,68.39453 h -7.78907 v -32.07031 h -54.2539 v 32.07031 h -7.72657 v -56.80859 c 0,-2.81641 1.44141,-6.02344 3.53516,-8.11719 l 24.34766,-20.8125 c 3.86328,-3.53515 10.21093,-3.53515 14.07031,0 l 24.34766,20.8125 c 2.48828,2.09375 3.53515,5.30078 3.53515,8.11719 v 56.80859 z m 0,0" fill-opacity="1" fill-rule="nonzero" id="path6"/>
  </g>
  <path fill="#fa6525" d="m 129.36719,112.47265 c -5.30079,0 -10.92969,-4.2539 -10.92969,-10.60156 0,-6.675779 4.58203,-12.371089 4.58203,-17.999999 0,-5.6289 -0.71875,-10.21094 -8.44141,-10.21094 -7.78906,0 -8.44531,4.58204 -8.44531,10.21094 0,5.62891 4.91016,11.25781 4.91016,17.999999 0,6.34766 -6.01953,10.60156 -11.257819,10.60156 -5.30078,0 -12.36718,1.76563 -12.36718,6.67579 h 54.253899 c 0.0664,-4.91016 -7,-6.67579 -12.30468,-6.67579 z M 114.57812,86.359371 c -2.09375,0 -3.86328,-1.76953 -3.86328,-4.2539 0,-2.09766 1.76953,-3.86328 3.86328,-3.86328 2.09375,0 4.25391,1.76562 4.25391,3.86328 0,2.55078 -2.16016,4.2539 -4.25391,4.2539 z m 0,0" fill-opacity="1" fill-rule="nonzero" id="path7"/>
  <g fill="#ffffff" fill-opacity="1" id="g10" transform="translate(-72.917969,-72.917969)">
    <g transform="translate(101.53986,166.44672)" id="g9">
      <g id="g8">
        <path d="M 6.640625,9.875 C 7.097656,9.382812 7.46875,8.875 7.75,8.34375 8.039062,7.8125 8.234375,7.320312 8.328125,6.875 8.441406,6.320312 8.429688,5.863281 8.296875,5.5 8.160156,5.144531 7.90625,4.929688 7.53125,4.859375 7.195312,4.785156 6.894531,4.828125 6.625,4.984375 6.363281,5.148438 6.140625,5.375 5.953125,5.65625 5.765625,5.9375 5.519531,6.335938 5.21875,6.859375 4.820312,7.566406 4.46875,8.128906 4.15625,8.546875 3.851562,8.960938 3.453125,9.289062 2.953125,9.53125 2.460938,9.769531 1.878906,9.816406 1.203125,9.671875 0.546875,9.535156 0.015625,9.238281 -0.390625,8.78125 c -0.414063,-0.449219 -0.6875,-1.015625 -0.8125,-1.703125 -0.125,-0.679687 -0.101563,-1.417969 0.0625,-2.21875 C -0.960938,4.023438 -0.632812,3.242188 -0.15625,2.515625 0.320312,1.796875 0.894531,1.207031 1.5625,0.75 L 2.984375,1.890625 C 2.367188,2.328125 1.84375,2.847656 1.40625,3.453125 0.976562,4.054688 0.703125,4.660156 0.578125,5.265625 0.441406,5.898438 0.457031,6.425781 0.625,6.84375 0.800781,7.257812 1.101562,7.507812 1.53125,7.59375 1.863281,7.664062 2.160156,7.617188 2.421875,7.453125 2.691406,7.285156 2.925781,7.050781 3.125,6.75 3.332031,6.457031 3.570312,6.054688 3.84375,5.546875 4.226562,4.828125 4.570312,4.265625 4.875,3.859375 5.1875,3.453125 5.582031,3.128906 6.0625,2.890625 6.550781,2.660156 7.132812,2.613281 7.8125,2.75 c 0.613281,0.132812 1.113281,0.414062 1.5,0.84375 0.394531,0.425781 0.65625,0.96875 0.78125,1.625 0.132812,0.664062 0.117188,1.390625 -0.04687,2.171875 C 9.898443,8.066406 9.648443,8.71875 9.29688,9.34375 8.95313,9.976562 8.550786,10.523438 8.093755,10.984375 Z m 0,0" id="path8"/>
      </g>
    </g>
  </g>
  <g fill="#ffffff" fill-opacity="1" id="g13" transform="translate(-72.917969,-72.917969)">
    <g transform="translate(98.799722,181.78936)" id="g12">
      <g id="g11">
        <path d="m 10.953125,8.59375 -0.0625,1.921875 L 3.546875,6.171875 -0.1875,6.0625 l 0.0625,-1.875 3.65625,0.109375 7.671875,-3.9375 -0.0625,1.90625 -5.546875,3.03125 z m 0,0" id="path10"/>
      </g>
    </g>
  </g>
  <g fill="#ffffff" fill-opacity="1" id="g16" transform="translate(-72.917969,-72.917969)">
    <g transform="translate(98.760546,197.69203)" id="g15">
      <g id="g14">
        <path d="m 12.046875,4.171875 c 0.175781,1.101563 0.09766,2.125 -0.234375,3.0625 C 11.476562,8.179688 10.929688,8.96875 10.171875,9.59375 9.410156,10.226562 8.5,10.628906 7.4375,10.796875 6.394531,10.972656 5.410156,10.878906 4.484375,10.515625 3.566406,10.160156 2.796875,9.585938 2.171875,8.796875 1.554688,8.003906 1.15625,7.050781 0.96875,5.9375 l -0.734375,-4.484375 11.0625,-1.8125 z M 2.671875,5.75 c 0.113281,0.707031 0.378906,1.320312 0.796875,1.84375 0.414062,0.519531 0.941406,0.898438 1.578125,1.140625 0.644531,0.25 1.332031,0.3125 2.0625,0.1875 0.738281,-0.117187 1.375,-0.398437 1.90625,-0.84375 0.539063,-0.4375 0.925781,-0.980469 1.15625,-1.625 0.238281,-0.636719 0.296875,-1.3125 0.171875,-2.03125 L 9.921875,1.78125 l -7.6875,1.25 z m 0,0" id="path13"/>
      </g>
    </g>
  </g>
  <g fill="#ffffff" fill-opacity="1" id="g19" transform="translate(-72.917969,-72.917969)">
    <g transform="translate(102.27419,215.5208)" id="g18">
      <g id="g17">
        <path d="M 6.28125,7.578125 13.828125,4.65625 14.484375,6.390625 4.03125,10.4375 3.375,8.703125 8.734375,0.21875 1.21875,3.125 0.53125,1.375 10.984375,-2.671875 11.65625,-0.9375 Z m 0,0" id="path16"/>
      </g>
    </g>
  </g>
  <g fill="#ffffff" fill-opacity="1" id="g22" transform="translate(-72.917969,-72.917969)">
    <g transform="translate(109.52627,232.41336)" id="g21">
      <g id="g20">
        <path d="m 0.78125,1.234375 9.453125,-6 L 14.53125,2 13.09375,2.90625 9.8125,-2.25 l -2.546875,1.625 2.9375,4.609375 -1.4375,0.90625 -2.9375,-4.609375 -2.59375,1.65625 3.375,5.3125 -1.4375,0.90625 z m 0,0" id="path19"/>
      </g>
    </g>
  </g>
  <g fill="#ffffff" fill-opacity="1" id="g25" transform="translate(-72.917969,-72.917969)">
    <g transform="translate(118.60945,245.75537)" id="g24">
      <g id="g23">
        <path d="m 13.8125,-1.546875 1.3125,1.40625 -8.28125,2.0625 -2.734375,2.53125 -1.265625,-1.375 2.6875,-2.484375 2.703125,-8.1875 1.296875,1.390625 -1.828125,6.0625 z m 0,0" id="path22"/>
      </g>
    </g>
  </g>
  <g fill="#ffffff" fill-opacity="1" id="g28" transform="translate(-72.917969,-72.917969)">
    <g transform="translate(129.66988,256.82767)" id="g27">
      <g id="g26"/>
    </g>
  </g>
  <g fill="#ffffff" fill-opacity="1" id="g31" transform="translate(-72.917969,-72.917969)">
    <g transform="translate(137.41771,262.95749)" id="g30">
      <g id="g29">
        <path d="m 1.265625,0.734375 5.578125,-9.71875 1.640625,0.9375 L 6.0625,-3.828125 11.21875,-0.875 13.640625,-5.09375 15.28125,-4.140625 9.703125,5.578125 8.0625,4.625 10.375,0.59375 5.21875,-2.359375 2.90625,1.671875 Z m 0,0" id="path28"/>
      </g>
    </g>
  </g>
  <g fill="#ffffff" fill-opacity="1" id="g34" transform="translate(-72.917969,-72.917969)">
    <g transform="translate(153.70012,271.62953)" id="g33">
      <g id="g32">
        <path d="m 9.640625,-8.796875 c 1.039063,0.335937 1.914063,0.875 2.625,1.625 0.71875,0.75 1.191406,1.625 1.421875,2.625 0.226562,0.992187 0.179688,1.992187 -0.140625,3 C 13.222656,-0.535156 12.675781,0.300781 11.90625,0.96875 11.132812,1.644531 10.238281,2.085938 9.21875,2.296875 8.195312,2.515625 7.164062,2.457031 6.125,2.125 5.070312,1.789062 4.191406,1.238281 3.484375,0.46875 2.785156,-0.300781 2.320312,-1.179688 2.09375,-2.171875 c -0.230469,-0.988281 -0.183594,-1.988281 0.140625,-3 C 2.554688,-6.179688 3.101562,-7.023438 3.875,-7.703125 4.644531,-8.378906 5.535156,-8.8125 6.546875,-9 7.554688,-9.195312 8.585938,-9.128906 9.640625,-8.796875 Z M 9.125,-7.15625 C 8.425781,-7.375 7.726562,-7.410156 7.03125,-7.265625 6.332031,-7.128906 5.71875,-6.820312 5.1875,-6.34375 4.664062,-5.875 4.289062,-5.289062 4.0625,-4.59375 3.832031,-3.894531 3.796875,-3.191406 3.953125,-2.484375 4.117188,-1.785156 4.4375,-1.164062 4.90625,-0.625 5.382812,-0.09375 5.972656,0.28125 6.671875,0.5 c 0.6875,0.21875 1.375,0.242188 2.0625,0.078125 0.6875,-0.15625 1.296875,-0.476563 1.828125,-0.953125 0.53125,-0.476562 0.910156,-1.066406 1.140625,-1.765625 0.226563,-0.695313 0.257813,-1.390625 0.09375,-2.078125 -0.15625,-0.695312 -0.46875,-1.304688 -0.9375,-1.828125 C 10.390625,-6.566406 9.8125,-6.9375 9.125,-7.15625 Z m 0,0" id="path31"/>
      </g>
    </g>
  </g>
  <g fill="#ffffff" fill-opacity="1" id="g37" transform="translate(-72.917969,-72.917969)">
    <g transform="translate(171.71859,276.74975)" id="g36">
      <g id="g35">
        <path d="m 3.59375,-4.234375 c -0.09375,0.929687 0.09375,1.6875 0.5625,2.28125 0.46875,0.59375 1.15625,0.9375 2.0625,1.03125 C 7.101562,-0.828125 7.835938,-1.019531 8.421875,-1.5 9.003906,-1.976562 9.34375,-2.6875 9.4375,-3.625 l 0.6875,-6.578125 1.859375,0.1875 -0.6875,6.578125 C 11.203125,-2.476562 10.929688,-1.664062 10.484375,-1 10.035156,-0.332031 9.425781,0.148438 8.65625,0.453125 7.882812,0.765625 7.015625,0.867188 6.046875,0.765625 5.054688,0.671875 4.21875,0.394531 3.53125,-0.0625 2.851562,-0.53125 2.359375,-1.132812 2.046875,-1.875 1.734375,-2.625 1.625,-3.476562 1.71875,-4.4375 l 0.6875,-6.578125 1.875,0.203125 z m 0,0" id="path34"/>
      </g>
    </g>
  </g>
  <g fill="#ffffff" fill-opacity="1" id="g40" transform="translate(-72.917969,-72.917969)">
    <g transform="translate(189.50086,277.95631)" id="g39">
      <g id="g38">
        <path d="M 7.515625,-9.203125 C 6.910156,-9.515625 6.316406,-9.726562 5.734375,-9.84375 5.160156,-9.957031 4.644531,-9.992188 4.1875,-9.953125 c -0.5625,0.042969 -1,0.183594 -1.3125,0.421875 -0.3125,0.242188 -0.453125,0.546875 -0.421875,0.921875 0.03125,0.34375 0.160156,0.621094 0.390625,0.828125 0.238281,0.199219 0.519531,0.351562 0.84375,0.453125 0.332031,0.105469 0.789062,0.21875 1.375,0.34375 0.769531,0.167969 1.398438,0.339844 1.890625,0.515625 0.5,0.179688 0.9375,0.46875 1.3125,0.875 0.375,0.40625 0.59375,0.960938 0.65625,1.65625 0.050781,0.667969 -0.085937,1.261719 -0.40625,1.78125 -0.3125,0.511719 -0.777344,0.929688 -1.390625,1.25 C 6.519531,-0.582031 5.804688,-0.382812 4.984375,-0.3125 4.128906,-0.238281 3.285156,-0.328125 2.453125,-0.578125 1.628906,-0.828125 0.90625,-1.207031 0.28125,-1.71875 l 0.671875,-1.6875 c 0.601563,0.480469 1.253906,0.835938 1.953125,1.0625 0.695312,0.230469 1.351562,0.320312 1.96875,0.265625 0.644531,-0.050781 1.140625,-0.21875 1.484375,-0.5 C 6.710938,-2.859375 6.867188,-3.21875 6.828125,-3.65625 6.796875,-4 6.660156,-4.269531 6.421875,-4.46875 6.191406,-4.675781 5.90625,-4.832031 5.5625,-4.9375 5.226562,-5.050781 4.769531,-5.164062 4.1875,-5.28125 3.394531,-5.445312 2.757812,-5.613281 2.28125,-5.78125 1.8125,-5.957031 1.390625,-6.242188 1.015625,-6.640625 0.648438,-7.035156 0.4375,-7.578125 0.375,-8.265625 0.320312,-8.898438 0.441406,-9.46875 0.734375,-9.96875 c 0.300781,-0.5 0.75,-0.90625 1.34375,-1.21875 0.59375,-0.3125 1.289063,-0.5 2.09375,-0.5625 0.695313,-0.0625 1.390625,-0.01563 2.078125,0.140625 0.695312,0.15625 1.335938,0.382813 1.921875,0.671875 z m 0,0" id="path37"/>
      </g>
    </g>
  </g>
  <g fill="#ffffff" fill-opacity="1" id="g43" transform="translate(-72.917969,-72.917969)">
    <g transform="translate(204.98685,276.14203)" id="g42">
      <g id="g41">
        <path d="m 1.421875,-0.390625 -2.9375,-10.8125 7.71875,-2.09375 L 6.65625,-11.65625 0.75,-10.046875 1.53125,-7.125 6.8125,-8.5625 l 0.453125,1.640625 -5.28125,1.4375 0.796875,2.96875 6.078125,-1.65625 0.453125,1.640625 z m 0,0" id="path40"/>
      </g>
    </g>
  </g>
  <g fill="#ffffff" fill-opacity="1" id="g46" transform="translate(-72.917969,-72.917969)">
    <g transform="translate(220.21505,271.35837)" id="g45">
      <g id="g44"/>
    </g>
  </g>
  <g fill="#ffffff" fill-opacity="1" id="g49" transform="translate(-72.917969,-72.917969)">
    <g transform="translate(229.1464,267.28066)" id="g48">
      <g id="g47">
        <path d="m -0.90625,-12.640625 c 1.195312,-0.75 2.300781,-1.046875 3.3125,-0.890625 1.007812,0.15625 1.835938,0.75 2.484375,1.78125 0.664063,1.074219 0.851563,2.117188 0.5625,3.125 -0.28125,1 -1.023437,1.875 -2.21875,2.625 l -2.1875,1.359375 1.796875,2.859375 -1.59375,1 -5.9375,-9.5 z m 3.1875,5.21875 c 0.738281,-0.457031 1.207031,-0.96875 1.40625,-1.53125 0.195312,-0.5625 0.09375,-1.160156 -0.3125,-1.796875 -0.386719,-0.613281 -0.871094,-0.953125 -1.453125,-1.015625 -0.585937,-0.0625 -1.246094,0.136719 -1.984375,0.59375 l -2.125,1.328125 2.34375,3.75 z m 0,0" id="path46"/>
      </g>
    </g>
  </g>
  <g fill="#ffffff" fill-opacity="1" id="g52" transform="translate(-72.917969,-72.917969)">
    <g transform="translate(242.84293,258.13064)" id="g51">
      <g id="g50">
        <path d="m 8.625,-8.046875 -1.46875,1.375 L 4.625,-7.78125 0.5,-3.9375 l 0.953125,2.578125 -1.4375,1.34375 -4.03125,-11.546875 1.40625,-1.328125 z m -10.59375,-2.6875 1.84375,5.09375 3.09375,-2.890625 z m 0,0" id="path49"/>
      </g>
    </g>
  </g>
  <g fill="#ffffff" fill-opacity="1" id="g55" transform="translate(-72.917969,-72.917969)">
    <g transform="translate(255.01336,245.80465)" id="g54">
      <g id="g53">
        <path d="m 0.90625,-1.15625 -8.828125,-6.890625 1.15625,-1.484375 8.828125,6.890625 z m 0,0" id="path52"/>
      </g>
    </g>
  </g>
  <g fill="#ffffff" fill-opacity="1" id="g58" transform="translate(-72.917969,-72.917969)">
    <g transform="translate(261.31209,237.52202)" id="g57">
      <g id="g56">
        <path d="m 1.75,-9.6875 -7.09375,-3.875 0.890625,-1.625 9.828125,5.375 -0.890625,1.625 -9.953125,1.359375 7.078125,3.875 -0.90625,1.671875 -9.828125,-5.375 0.890625,-1.640625 z m 0,0" id="path55"/>
      </g>
    </g>
  </g>
  <g fill="#ffffff" fill-opacity="1" id="g61" transform="translate(-72.917969,-72.917969)">
    <g transform="translate(269.5044,221.10964)" id="g60">
      <g id="g59">
        <path d="m -9,-3.0625 -1.609375,-0.515625 2.765625,-8.546875 1.609375,0.515625 -1.109375,3.390625 9.046875,2.921875 -0.5625,1.78125 L -7.90625,-6.4375 Z m 0,0" id="path58"/>
      </g>
    </g>
  </g>
  <g fill="#ffffff" fill-opacity="1" id="g64" transform="translate(-72.917969,-72.917969)">
    <g transform="translate(273.50864,206.95229)" id="g63">
      <g id="g62">
        <path d="m 0.25,-1.453125 -11.046875,-1.90625 0.328125,-1.859375 11.046875,1.90625 z m 0,0" id="path61"/>
      </g>
    </g>
  </g>
  <g fill="#ffffff" fill-opacity="1" id="g67" transform="translate(-72.917969,-72.917969)">
    <g transform="translate(275.14692,196.67696)" id="g66">
      <g id="g65">
        <path d="m -3.03125,-9.359375 -8.09375,-0.0625 0.01563,-1.859375 11.20312,0.09375 -0.015625,1.859375 -8.109375,5.890625 8.0625,0.078125 -0.015625,1.890625 -11.203125,-0.09375 0.01563,-1.859375 z m 0,0" id="path64"/>
      </g>
    </g>
  </g>
  <g fill="#ffffff" fill-opacity="1" id="g70" transform="translate(-72.917969,-72.917969)">
    <g transform="translate(274.68306,178.24974)" id="g69">
      <g id="g68">
        <path d="M -7.171875,-7.890625 -7.484375,-9.5 l 4.09375,-0.8125 c 0.53125,0.46875 1.011719,1.0625 1.4375,1.78125 0.417969,0.71875 0.699219,1.449219 0.84375,2.1875 0.210937,1.074219 0.152344,2.105469 -0.171875,3.09375 -0.320312,0.980469 -0.863281,1.808594 -1.625,2.484375 -0.757812,0.6796875 -1.660156,1.117187 -2.703125,1.328125 -1.039063,0.207031 -2.039063,0.132812 -3,-0.21875 C -9.566406,0 -10.378906,-0.570312 -11.046875,-1.375 c -0.675781,-0.800781 -1.125,-1.75 -1.34375,-2.84375 -0.144531,-0.78125 -0.148437,-1.570312 -0.01563,-2.375 0.125,-0.800781 0.375,-1.519531 0.75,-2.15625 l 1.546875,0.78125 c -0.300781,0.511719 -0.503906,1.070312 -0.609375,1.671875 -0.101562,0.59375 -0.101562,1.179687 0,1.75 0.148438,0.742187 0.453125,1.382813 0.921875,1.921875 0.46875,0.542969 1.042969,0.933594 1.71875,1.171875 0.667969,0.230469 1.367187,0.273437 2.09375,0.125 0.730469,-0.144531 1.367187,-0.453125 1.90625,-0.921875 0.53125,-0.476562 0.914063,-1.0625 1.140625,-1.75 0.230469,-0.6875 0.273438,-1.398438 0.125,-2.140625 -0.082031,-0.40625 -0.234375,-0.8125 -0.453125,-1.21875 -0.226563,-0.414063 -0.503906,-0.800781 -0.828125,-1.15625 z m 0,0" id="path67"/>
      </g>
    </g>
  </g>
  <g fill="#ffffff" fill-opacity="1" id="g73" transform="translate(-72.917969,-72.917969)">
    <g transform="translate(127.06676,137.07786)" id="g72">
      <g id="g71">
        <path d="m -6.765625,-6.671875 -1.21875,-1.1875 6.21875,-6.484375 1.21875,1.1875 L -3,-10.59375 3.859375,-4.015625 2.546875,-2.65625 -4.3125,-9.234375 Z m 0,0" id="path70"/>
      </g>
    </g>
  </g>
  <g fill="#ffffff" fill-opacity="1" id="g76" transform="translate(-72.917969,-72.917969)">
    <g transform="translate(136.41443,127.70789)" id="g75">
      <g id="g74">
        <path d="m 8.703125,-6.265625 -1.734375,1.25 L 3.3125,-6.5625 C 3.238281,-6.488281 3.101562,-6.382812 2.90625,-6.25 L 0.75,-4.703125 2.71875,-1.96875 1.1875,-0.859375 l -6.546875,-9.09375 3.6875,-2.65625 c 1.167969,-0.832031 2.265625,-1.207031 3.296875,-1.125 1.03125,0.07422 1.898438,0.605469 2.609375,1.59375 0.519531,0.730469 0.800781,1.464844 0.84375,2.203125 0.039063,0.730469 -0.164063,1.429688 -0.609375,2.09375 z M -0.25,-6.09375 1.90625,-7.640625 C 2.625,-8.148438 3.0625,-8.691406 3.21875,-9.265625 3.382812,-9.847656 3.25,-10.445312 2.8125,-11.0625 2.382812,-11.644531 1.875,-11.941406 1.28125,-11.953125 c -0.585938,-0.01953 -1.234375,0.226563 -1.953125,0.734375 l -2.15625,1.546875 z m 0,0" id="path73"/>
      </g>
    </g>
  </g>
  <g fill="#ffffff" fill-opacity="1" id="g79" transform="translate(-72.917969,-72.917969)">
    <g transform="translate(149.16815,118.97225)" id="g78">
      <g id="g77">
        <path d="M 0.96875,-5.484375 C 1.351562,-4.628906 1.898438,-4.0625 2.609375,-3.78125 3.316406,-3.507812 4.082031,-3.5625 4.90625,-3.9375 5.726562,-4.300781 6.265625,-4.835938 6.515625,-5.546875 6.773438,-6.253906 6.710938,-7.039062 6.328125,-7.90625 L 3.59375,-13.921875 5.296875,-14.6875 8.03125,-8.671875 c 0.394531,0.886719 0.566406,1.730469 0.515625,2.53125 -0.054687,0.804687 -0.335937,1.53125 -0.84375,2.1875 -0.5,0.648437 -1.199219,1.167969 -2.09375,1.5625 -0.898437,0.40625 -1.761719,0.589844 -2.59375,0.546875 C 2.191406,-1.894531 1.457031,-2.160156 0.8125,-2.640625 0.164062,-3.128906 -0.351562,-3.816406 -0.75,-4.703125 L -3.484375,-10.71875 -1.765625,-11.5 Z m 0,0" id="path76"/>
      </g>
    </g>
  </g>
  <g fill="#ffffff" fill-opacity="1" id="g82" transform="translate(-72.917969,-72.917969)">
    <g transform="translate(163.99588,112.78565)" id="g81">
      <g id="g80">
        <path d="m 6.0625,-10.234375 c -0.636719,-0.207031 -1.257812,-0.320313 -1.859375,-0.34375 -0.59375,-0.03125 -1.117187,0.0078 -1.5625,0.109375 -0.542969,0.136719 -0.949219,0.34375 -1.21875,0.625 -0.273437,0.273438 -0.367187,0.589844 -0.28125,0.953125 0.082031,0.335937 0.253906,0.589844 0.515625,0.765625 0.257812,0.167969 0.5625,0.277344 0.90625,0.328125 0.34375,0.054687 0.8125,0.101563 1.40625,0.140625 0.789062,0.054688 1.441406,0.132812 1.953125,0.234375 0.519531,0.105469 0.992187,0.324219 1.421875,0.65625 0.425781,0.335937 0.722656,0.84375 0.890625,1.53125 0.15625,0.648437 0.113281,1.25 -0.125,1.8125 -0.230469,0.5625 -0.625,1.054687 -1.1875,1.46875 -0.5625,0.40625 -1.246094,0.710937 -2.046875,0.90625 C 4.039062,-0.847656 3.195312,-0.8125 2.34375,-0.9375 1.488281,-1.0625 0.710938,-1.328125 0.015625,-1.734375 L 0.4375,-3.5 c 0.65625,0.367188 1.347656,0.617188 2.078125,0.75 0.738281,0.136719 1.40625,0.132812 2,-0.015625 0.625,-0.15625 1.085937,-0.398437 1.390625,-0.734375 0.300781,-0.332031 0.398438,-0.710938 0.296875,-1.140625 -0.074219,-0.332031 -0.242187,-0.582031 -0.5,-0.75 C 5.441406,-5.554688 5.128906,-5.664062 4.765625,-5.71875 4.398438,-5.78125 3.929688,-5.820312 3.359375,-5.84375 2.554688,-5.894531 1.898438,-5.96875 1.390625,-6.0625 0.890625,-6.164062 0.425781,-6.382812 0,-6.71875 c -0.414062,-0.332031 -0.703125,-0.835938 -0.859375,-1.515625 -0.15625,-0.613281 -0.125,-1.1875 0.09375,-1.71875 0.21875,-0.539063 0.601563,-1.007813 1.140625,-1.40625 0.539062,-0.40625 1.203125,-0.703125 1.984375,-0.890625 0.675781,-0.164062 1.367187,-0.222656 2.078125,-0.171875 0.71875,0.05469 1.390625,0.183594 2.015625,0.390625 z m 0,0" id="path79"/>
      </g>
    </g>
  </g>
  <g fill="#ffffff" fill-opacity="1" id="g85" transform="translate(-72.917969,-72.917969)">
    <g transform="translate(177.64815,109.89534)" id="g84">
      <g id="g83">
        <path d="m -0.453125,-9.5 -0.109375,-1.703125 8.96875,-0.5625 0.109375,1.703125 -3.5625,0.234375 0.59375,9.484375 L 3.6875,-0.234375 3.09375,-9.71875 Z m 0,0" id="path82"/>
      </g>
    </g>
  </g>
  <g fill="#ffffff" fill-opacity="1" id="g88" transform="translate(-72.917969,-72.917969)">
    <g transform="translate(190.89543,109.35393)" id="g87">
      <g id="g86">
        <path d="m 1.453125,0.171875 1.25,-11.125 7.953125,0.890625 -0.1875,1.6875 L 4.40625,-9.0625 4.0625,-6.046875 9.484375,-5.4375 9.296875,-3.765625 3.875,-4.375 l -0.34375,3.0625 6.25,0.703125 -0.1875,1.6875 z m 0,0" id="path85"/>
      </g>
    </g>
  </g>
  <g fill="#ffffff" fill-opacity="1" id="g91" transform="translate(-72.917969,-72.917969)">
    <g transform="translate(205.1826,111.25539)" id="g90">
      <g id="g89">
        <path d="m 9.15625,-8.859375 c 1.0625,0.335937 1.941406,0.867187 2.640625,1.59375 0.695313,0.71875 1.148437,1.5625 1.359375,2.53125 C 13.375,-3.773438 13.320312,-2.78125 13,-1.75 12.675781,-0.738281 12.144531,0.09375 11.40625,0.75 10.675781,1.40625 9.816406,1.832031 8.828125,2.03125 7.835938,2.226562 6.804688,2.15625 5.734375,1.8125 L 1.40625,0.4375 4.78125,-10.25 Z M 6.34375,0.21875 c 0.6875,0.21875 1.351562,0.257812 2,0.125 C 9,0.207031 9.578125,-0.09375 10.078125,-0.5625 c 0.5,-0.46875 0.863281,-1.050781 1.09375,-1.75 0.21875,-0.71875 0.25,-1.414062 0.09375,-2.09375 C 11.117188,-5.082031 10.8125,-5.664062 10.34375,-6.15625 9.882812,-6.65625 9.304688,-7.019531 8.609375,-7.25 L 6.0625,-8.046875 l -2.34375,7.4375 z m 0,0" id="path88"/>
      </g>
    </g>
  </g>
  <g fill="#ffffff" fill-opacity="1" id="g94" transform="translate(-72.917969,-72.917969)">
    <g transform="translate(220.66528,116.8218)" id="g93">
      <g id="g92"/>
    </g>
  </g>
  <g fill="#ffffff" fill-opacity="1" id="g97" transform="translate(-72.917969,-72.917969)">
    <g transform="translate(228.18968,120.63856)" id="g96">
      <g id="g95">
        <path d="m 11.640625,-5.5 c 0.9375,0.667969 1.539063,1.398438 1.8125,2.1875 0.269531,0.792969 0.148437,1.542969 -0.359375,2.25 -0.355469,0.511719 -0.808594,0.855469 -1.359375,1.03125 -0.542969,0.164062 -1.105469,0.1289062 -1.6875,-0.109375 0.539063,0.53125 0.835937,1.125 0.890625,1.78125 C 11,2.304688 10.816406,2.945312 10.390625,3.5625 9.828125,4.351562 9.09375,4.757812 8.1875,4.78125 7.28125,4.800781 6.304688,4.445312 5.265625,3.71875 L 1.203125,0.84375 7.65625,-8.3125 Z M 8.875,-1.765625 c 0.5,0.355469 0.960938,0.523437 1.390625,0.5 0.425781,-0.019531 0.773437,-0.226563 1.046875,-0.625 0.269531,-0.375 0.335938,-0.765625 0.203125,-1.171875 -0.136719,-0.40625 -0.449219,-0.773438 -0.9375,-1.109375 l -2.34375,-1.65625 -1.703125,2.40625 z M 6.078125,2.203125 C 6.671875,2.640625 7.21875,2.863281 7.71875,2.875 8.21875,2.882812 8.617188,2.675781 8.921875,2.25 9.210938,1.84375 9.269531,1.398438 9.09375,0.921875 8.914062,0.453125 8.519531,0.0078125 7.90625,-0.40625 L 5.5625,-2.0625 3.734375,0.546875 Z m 0,0" id="path94"/>
      </g>
    </g>
  </g>
  <g fill="#ffffff" fill-opacity="1" id="g100" transform="translate(-72.917969,-72.917969)">
    <g transform="translate(240.39491,129.76134)" id="g99">
      <g id="g98">
        <path d="M 13.78125,-1.875 15.109375,-0.5 6.890625,1.75 4.21875,4.34375 2.921875,3 l 2.625,-2.546875 2.5,-8.234375 1.328125,1.359375 -1.6875,6.09375 z m 0,0" id="path97"/>
      </g>
    </g>
  </g>
</svg>